<?xml version="1.0" encoding="UTF-8" standalone="no"?>
<!-- Created with Inkscape (http://www.inkscape.org/) -->

<svg
   width="461.55865mm"
   height="447.56244mm"
   viewBox="0 0 461.55865 447.56244"
   version="1.1"
   id="svg1"
   xml:space="preserve"
   xmlns="http://www.w3.org/2000/svg"
   xmlns:svg="http://www.w3.org/2000/svg"><defs
     id="defs1" /><g
     id="layer2"
     transform="translate(-1560.2505,-33.956207)"><g
       id="layer1-4"
       transform="translate(1536)"><g
         id="g11-7-0-0-9-0-20-7"
         transform="matrix(0,0.59667125,0.59667125,0,393.2673,161.87008)"
         style="stroke-width:0.443432"><path
           id="path3-9-3-3-8-7-0-1-0-3-2-8"
           style="fill:#ffcc00;fill-opacity:1;fill-rule:nonzero;stroke:none;stroke-width:5.87637;stroke-dasharray:none;stroke-opacity:1"
           d="m 72.187145,-608.63455 c -8.389369,38.44406 -27.282093,70.83442 -54.178521,94.61352 -4.137019,3.65754 -5.449842,10.26951 -2.688548,15.05251 14.675938,25.42107 29.351877,50.84214 44.027816,76.26321 2.761293,4.783 8.673559,6.0982 13.068673,2.75435 28.548345,-21.71988 52.510725,-48.95763 72.013875,-81.76553 2.82204,-4.74718 3.00458,-12.6906 0.7284,-17.72185 -7.11103,-15.71813 -21.09098,-50.13052 -25.68624,-89.06116 -0.64735,-5.48427 -5.43095,-9.95351 -10.9538,-9.95353 l -24.440675,-6e-5 c -5.522847,-2e-5 -10.713598,4.42321 -11.89098,9.81854 z" /><path
           id="path3-9-3-3-8-7-3-1-7-3-6-3-4"
           style="fill:#f18700;fill-opacity:1;fill-rule:nonzero;stroke:none;stroke-width:5.87637;stroke-dasharray:none;stroke-opacity:1"
           d="m 72.187145,-608.63455 c -8.389369,38.44406 -27.282093,70.83442 -54.178521,94.61352 -4.137019,3.65754 -5.449842,10.26951 -2.688548,15.05251 14.675938,25.42107 29.351877,50.84214 44.027816,76.26321 2.761293,4.783 8.673559,6.0982 13.068673,2.75435 28.548345,-21.71988 52.510725,-48.95763 72.013875,-81.76553 2.82204,-4.74718 3.00458,-12.6906 0.7284,-17.72185 -7.11103,-15.71813 -21.09098,-50.13052 -25.68624,-89.06116 -0.64735,-5.48427 -5.43095,-9.95351 -10.9538,-9.95353 l -24.440675,-6e-5 c -5.522847,-2e-5 -10.713598,4.42321 -11.89098,9.81854 z"
           transform="rotate(120,158.4647,-495.98275)" /><path
           id="path3-9-3-3-8-7-3-5-2-9-3-2-7-5"
           style="fill:#ce1625;fill-opacity:1;fill-rule:nonzero;stroke:none;stroke-width:5.87637;stroke-dasharray:none;stroke-opacity:1"
           d="m 72.187145,-608.63455 c -8.389369,38.44406 -27.282093,70.83442 -54.178521,94.61352 -4.137019,3.65754 -5.449842,10.26951 -2.688548,15.05251 14.675938,25.42107 29.351877,50.84214 44.027816,76.26321 2.761293,4.783 8.673559,6.0982 13.068673,2.75435 28.548345,-21.71988 52.510725,-48.95763 72.013875,-81.76553 2.82204,-4.74718 3.00458,-12.6906 0.7284,-17.72185 -7.11103,-15.71813 -21.09098,-50.13052 -25.68624,-89.06116 -0.64735,-5.48427 -5.43095,-9.95351 -10.9538,-9.95353 l -24.440675,-6e-5 c -5.522847,-2e-5 -10.713598,4.42321 -11.89098,9.81854 z"
           transform="rotate(-120,158.45415,-495.99122)" /></g><g
         id="g11-7-0-0-9-0-0-5-0"
         transform="matrix(0.51673246,-0.29833562,0.29833562,0.51673246,241.95468,423.93573)"
         style="stroke-width:0.443432"><path
           id="path3-9-3-3-8-7-0-1-0-3-1-9-3"
           style="fill:#008b92;fill-opacity:1;fill-rule:nonzero;stroke:none;stroke-width:5.87637;stroke-dasharray:none;stroke-opacity:1"
           d="m 72.187145,-608.63455 c -8.389369,38.44406 -27.282093,70.83442 -54.178521,94.61352 -4.137019,3.65754 -5.449842,10.26951 -2.688548,15.05251 14.675938,25.42107 29.351877,50.84214 44.027816,76.26321 2.761293,4.783 8.673559,6.0982 13.068673,2.75435 28.548345,-21.71988 52.510725,-48.95763 72.013875,-81.76553 2.82204,-4.74718 3.00458,-12.6906 0.7284,-17.72185 -7.11103,-15.71813 -21.09098,-50.13052 -25.68624,-89.06116 -0.64735,-5.48427 -5.43095,-9.95351 -10.9538,-9.95353 l -24.440675,-6e-5 c -5.522847,-2e-5 -10.713598,4.42321 -11.89098,9.81854 z" /><path
           id="path3-9-3-3-8-7-3-1-7-3-6-9-2-6"
           style="fill:#0075bf;fill-opacity:1;fill-rule:nonzero;stroke:none;stroke-width:5.87637;stroke-dasharray:none;stroke-opacity:1"
           d="m 72.187145,-608.63455 c -8.389369,38.44406 -27.282093,70.83442 -54.178521,94.61352 -4.137019,3.65754 -5.449842,10.26951 -2.688548,15.05251 14.675938,25.42107 29.351877,50.84214 44.027816,76.26321 2.761293,4.783 8.673559,6.0982 13.068673,2.75435 28.548345,-21.71988 52.510725,-48.95763 72.013875,-81.76553 2.82204,-4.74718 3.00458,-12.6906 0.7284,-17.72185 -7.11103,-15.71813 -21.09098,-50.13052 -25.68624,-89.06116 -0.64735,-5.48427 -5.43095,-9.95351 -10.9538,-9.95353 l -24.440675,-6e-5 c -5.522847,-2e-5 -10.713598,4.42321 -11.89098,9.81854 z"
           transform="rotate(120,158.4647,-495.98275)" /><path
           id="path3-9-3-3-8-7-3-5-2-9-3-2-6-2-1"
           style="fill:#29235c;fill-opacity:1;fill-rule:nonzero;stroke:none;stroke-width:5.87637;stroke-dasharray:none;stroke-opacity:1"
           d="m 72.187145,-608.63455 c -8.389369,38.44406 -27.282093,70.83442 -54.178521,94.61352 -4.137019,3.65754 -5.449842,10.26951 -2.688548,15.05251 14.675938,25.42107 29.351877,50.84214 44.027816,76.26321 2.761293,4.783 8.673559,6.0982 13.068673,2.75435 28.548345,-21.71988 52.510725,-48.95763 72.013875,-81.76553 2.82204,-4.74718 3.00458,-12.6906 0.7284,-17.72185 -7.11103,-15.71813 -21.09098,-50.13052 -25.68624,-89.06116 -0.64735,-5.48427 -5.43095,-9.95351 -10.9538,-9.95353 l -24.440675,-6e-5 c -5.522847,-2e-5 -10.713598,4.42321 -11.89098,9.81854 z"
           transform="rotate(-120,158.45415,-495.99122)" /></g><g
         id="g11-7-0-0-9-0-2-89-0"
         transform="matrix(0,0.59667125,0.59667125,0,630.13284,25.684221)"
         style="stroke-width:0.443432"><path
           id="path3-9-3-3-8-7-0-1-0-3-16-7-6"
           style="fill:#ffcc00;fill-opacity:1;fill-rule:nonzero;stroke:none;stroke-width:5.87637;stroke-dasharray:none;stroke-opacity:1"
           d="m 72.187145,-608.63455 c -8.389369,38.44406 -27.282093,70.83442 -54.178521,94.61352 -4.137019,3.65754 -5.449842,10.26951 -2.688548,15.05251 14.675938,25.42107 29.351877,50.84214 44.027816,76.26321 2.761293,4.783 8.673559,6.0982 13.068673,2.75435 28.548345,-21.71988 52.510725,-48.95763 72.013875,-81.76553 2.82204,-4.74718 3.00458,-12.6906 0.7284,-17.72185 -7.11103,-15.71813 -21.09098,-50.13052 -25.68624,-89.06116 -0.64735,-5.48427 -5.43095,-9.95351 -10.9538,-9.95353 l -24.440675,-6e-5 c -5.522847,-2e-5 -10.713598,4.42321 -11.89098,9.81854 z" /><path
           id="path3-9-3-3-8-7-3-1-7-3-6-2-36-3"
           style="fill:#f18700;fill-opacity:1;fill-rule:nonzero;stroke:none;stroke-width:5.87637;stroke-dasharray:none;stroke-opacity:1"
           d="m 72.187145,-608.63455 c -8.389369,38.44406 -27.282093,70.83442 -54.178521,94.61352 -4.137019,3.65754 -5.449842,10.26951 -2.688548,15.05251 14.675938,25.42107 29.351877,50.84214 44.027816,76.26321 2.761293,4.783 8.673559,6.0982 13.068673,2.75435 28.548345,-21.71988 52.510725,-48.95763 72.013875,-81.76553 2.82204,-4.74718 3.00458,-12.6906 0.7284,-17.72185 -7.11103,-15.71813 -21.09098,-50.13052 -25.68624,-89.06116 -0.64735,-5.48427 -5.43095,-9.95351 -10.9538,-9.95353 l -24.440675,-6e-5 c -5.522847,-2e-5 -10.713598,4.42321 -11.89098,9.81854 z"
           transform="rotate(120,158.4647,-495.98275)" /><path
           id="path3-9-3-3-8-7-3-5-2-9-3-2-1-1-2"
           style="fill:#ce1625;fill-opacity:1;fill-rule:nonzero;stroke:none;stroke-width:5.87637;stroke-dasharray:none;stroke-opacity:1"
           d="m 72.187145,-608.63455 c -8.389369,38.44406 -27.282093,70.83442 -54.178521,94.61352 -4.137019,3.65754 -5.449842,10.26951 -2.688548,15.05251 14.675938,25.42107 29.351877,50.84214 44.027816,76.26321 2.761293,4.783 8.673559,6.0982 13.068673,2.75435 28.548345,-21.71988 52.510725,-48.95763 72.013875,-81.76553 2.82204,-4.74718 3.00458,-12.6906 0.7284,-17.72185 -7.11103,-15.71813 -21.09098,-50.13052 -25.68624,-89.06116 -0.64735,-5.48427 -5.43095,-9.95351 -10.9538,-9.95353 l -24.440675,-6e-5 c -5.522847,-2e-5 -10.713598,4.42321 -11.89098,9.81854 z"
           transform="rotate(-120,158.45415,-495.99122)" /></g><g
         id="g11-7-0-0-9-0-2-8-2-0"
         transform="matrix(0,0.59667125,0.59667125,0,630.43565,300.31284)"
         style="stroke-width:0.443432"><path
           id="path3-9-3-3-8-7-0-1-0-3-16-6-9-6"
           style="fill:#ffcc00;fill-opacity:1;fill-rule:nonzero;stroke:none;stroke-width:5.87637;stroke-dasharray:none;stroke-opacity:1"
           d="m 72.187145,-608.63455 c -8.389369,38.44406 -27.282093,70.83442 -54.178521,94.61352 -4.137019,3.65754 -5.449842,10.26951 -2.688548,15.05251 14.675938,25.42107 29.351877,50.84214 44.027816,76.26321 2.761293,4.783 8.673559,6.0982 13.068673,2.75435 28.548345,-21.71988 52.510725,-48.95763 72.013875,-81.76553 2.82204,-4.74718 3.00458,-12.6906 0.7284,-17.72185 -7.11103,-15.71813 -21.09098,-50.13052 -25.68624,-89.06116 -0.64735,-5.48427 -5.43095,-9.95351 -10.9538,-9.95353 l -24.440675,-6e-5 c -5.522847,-2e-5 -10.713598,4.42321 -11.89098,9.81854 z" /><path
           id="path3-9-3-3-8-7-3-1-7-3-6-2-3-3-1"
           style="fill:#f18700;fill-opacity:1;fill-rule:nonzero;stroke:none;stroke-width:5.87637;stroke-dasharray:none;stroke-opacity:1"
           d="m 72.187145,-608.63455 c -8.389369,38.44406 -27.282093,70.83442 -54.178521,94.61352 -4.137019,3.65754 -5.449842,10.26951 -2.688548,15.05251 14.675938,25.42107 29.351877,50.84214 44.027816,76.26321 2.761293,4.783 8.673559,6.0982 13.068673,2.75435 28.548345,-21.71988 52.510725,-48.95763 72.013875,-81.76553 2.82204,-4.74718 3.00458,-12.6906 0.7284,-17.72185 -7.11103,-15.71813 -21.09098,-50.13052 -25.68624,-89.06116 -0.64735,-5.48427 -5.43095,-9.95351 -10.9538,-9.95353 l -24.440675,-6e-5 c -5.522847,-2e-5 -10.713598,4.42321 -11.89098,9.81854 z"
           transform="rotate(120,158.4647,-495.98275)" /><path
           id="path3-9-3-3-8-7-3-5-2-9-3-2-1-8-1-5"
           style="fill:#ce1625;fill-opacity:1;fill-rule:nonzero;stroke:none;stroke-width:5.87637;stroke-dasharray:none;stroke-opacity:1"
           d="m 72.187145,-608.63455 c -8.389369,38.44406 -27.282093,70.83442 -54.178521,94.61352 -4.137019,3.65754 -5.449842,10.26951 -2.688548,15.05251 14.675938,25.42107 29.351877,50.84214 44.027816,76.26321 2.761293,4.783 8.673559,6.0982 13.068673,2.75435 28.548345,-21.71988 52.510725,-48.95763 72.013875,-81.76553 2.82204,-4.74718 3.00458,-12.6906 0.7284,-17.72185 -7.11103,-15.71813 -21.09098,-50.13052 -25.68624,-89.06116 -0.64735,-5.48427 -5.43095,-9.95351 -10.9538,-9.95353 l -24.440675,-6e-5 c -5.522847,-2e-5 -10.713598,4.42321 -11.89098,9.81854 z"
           transform="rotate(-120,158.45414,-495.99122)" /></g><g
         id="g11-7-0-0-9-0-0-0-94-5"
         transform="matrix(0.51673246,-0.29833562,0.29833562,0.51673246,478.82011,560.2897)"
         style="stroke-width:0.443432"><path
           id="path3-9-3-3-8-7-0-1-0-3-1-1-78-4"
           style="fill:#008b92;fill-opacity:1;fill-rule:nonzero;stroke:none;stroke-width:5.87637;stroke-dasharray:none;stroke-opacity:1"
           d="m 72.187145,-608.63455 c -8.389369,38.44406 -27.282093,70.83442 -54.178521,94.61352 -4.137019,3.65754 -5.449842,10.26951 -2.688548,15.05251 14.675938,25.42107 29.351877,50.84214 44.027816,76.26321 2.761293,4.783 8.673559,6.0982 13.068673,2.75435 28.548345,-21.71988 52.510725,-48.95763 72.013875,-81.76553 2.82204,-4.74718 3.00458,-12.6906 0.7284,-17.72185 -7.11103,-15.71813 -21.09098,-50.13052 -25.68624,-89.06116 -0.64735,-5.48427 -5.43095,-9.95351 -10.9538,-9.95353 l -24.440675,-6e-5 c -5.522847,-2e-5 -10.713598,4.42321 -11.89098,9.81854 z" /><path
           id="path3-9-3-3-8-7-3-1-7-3-6-9-9-4-7"
           style="fill:#0075bf;fill-opacity:1;fill-rule:nonzero;stroke:none;stroke-width:5.87637;stroke-dasharray:none;stroke-opacity:1"
           d="m 72.187145,-608.63455 c -8.389369,38.44406 -27.282093,70.83442 -54.178521,94.61352 -4.137019,3.65754 -5.449842,10.26951 -2.688548,15.05251 14.675938,25.42107 29.351877,50.84214 44.027816,76.26321 2.761293,4.783 8.673559,6.0982 13.068673,2.75435 28.548345,-21.71988 52.510725,-48.95763 72.013875,-81.76553 2.82204,-4.74718 3.00458,-12.6906 0.7284,-17.72185 -7.11103,-15.71813 -21.09098,-50.13052 -25.68624,-89.06116 -0.64735,-5.48427 -5.43095,-9.95351 -10.9538,-9.95353 l -24.440675,-6e-5 c -5.522847,-2e-5 -10.713598,4.42321 -11.89098,9.81854 z"
           transform="rotate(120,158.4647,-495.98275)" /><path
           id="path3-9-3-3-8-7-3-5-2-9-3-2-6-7-5-6"
           style="fill:#29235c;fill-opacity:1;fill-rule:nonzero;stroke:none;stroke-width:5.87637;stroke-dasharray:none;stroke-opacity:1"
           d="m 72.187145,-608.63455 c -8.389369,38.44406 -27.282093,70.83442 -54.178521,94.61352 -4.137019,3.65754 -5.449842,10.26951 -2.688548,15.05251 14.675938,25.42107 29.351877,50.84214 44.027816,76.26321 2.761293,4.783 8.673559,6.0982 13.068673,2.75435 28.548345,-21.71988 52.510725,-48.95763 72.013875,-81.76553 2.82204,-4.74718 3.00458,-12.6906 0.7284,-17.72185 -7.11103,-15.71813 -21.09098,-50.13052 -25.68624,-89.06116 -0.64735,-5.48427 -5.43095,-9.95351 -10.9538,-9.95353 l -24.440675,-6e-5 c -5.522847,-2e-5 -10.713598,4.42321 -11.89098,9.81854 z"
           transform="rotate(-120,158.45415,-495.99122)" /></g><g
         id="g11-7-0-0-9-0-0-0-9-0-5"
         transform="matrix(0.51673246,-0.29833562,0.29833562,0.51673246,241.95467,698.73251)"
         style="stroke-width:0.443432"><path
           id="path3-9-3-3-8-7-0-1-0-3-1-1-5-3-6"
           style="fill:#008b92;fill-opacity:1;fill-rule:nonzero;stroke:none;stroke-width:5.87637;stroke-dasharray:none;stroke-opacity:1"
           d="m 72.187145,-608.63455 c -8.389369,38.44406 -27.282093,70.83442 -54.178521,94.61352 -4.137019,3.65754 -5.449842,10.26951 -2.688548,15.05251 14.675938,25.42107 29.351877,50.84214 44.027816,76.26321 2.761293,4.783 8.673559,6.0982 13.068673,2.75435 28.548345,-21.71988 52.510725,-48.95763 72.013875,-81.76553 2.82204,-4.74718 3.00458,-12.6906 0.7284,-17.72185 -7.11103,-15.71813 -21.09098,-50.13052 -25.68624,-89.06116 -0.64735,-5.48427 -5.43095,-9.95351 -10.9538,-9.95353 l -24.440675,-6e-5 c -5.522847,-2e-5 -10.713598,4.42321 -11.89098,9.81854 z" /><path
           id="path3-9-3-3-8-7-3-1-7-3-6-9-9-1-6-9"
           style="fill:#0075bf;fill-opacity:1;fill-rule:nonzero;stroke:none;stroke-width:5.87637;stroke-dasharray:none;stroke-opacity:1"
           d="m 72.187145,-608.63455 c -8.389369,38.44406 -27.282093,70.83442 -54.178521,94.61352 -4.137019,3.65754 -5.449842,10.26951 -2.688548,15.05251 14.675938,25.42107 29.351877,50.84214 44.027816,76.26321 2.761293,4.783 8.673559,6.0982 13.068673,2.75435 28.548345,-21.71988 52.510725,-48.95763 72.013875,-81.76553 2.82204,-4.74718 3.00458,-12.6906 0.7284,-17.72185 -7.11103,-15.71813 -21.09098,-50.13052 -25.68624,-89.06116 -0.64735,-5.48427 -5.43095,-9.95351 -10.9538,-9.95353 l -24.440675,-6e-5 c -5.522847,-2e-5 -10.713598,4.42321 -11.89098,9.81854 z"
           transform="rotate(120,158.4647,-495.98275)" /><path
           id="path3-9-3-3-8-7-3-5-2-9-3-2-6-7-2-10-3"
           style="fill:#29235c;fill-opacity:1;fill-rule:nonzero;stroke:none;stroke-width:5.87637;stroke-dasharray:none;stroke-opacity:1"
           d="m 72.187145,-608.63455 c -8.389369,38.44406 -27.282093,70.83442 -54.178521,94.61352 -4.137019,3.65754 -5.449842,10.26951 -2.688548,15.05251 14.675938,25.42107 29.351877,50.84214 44.027816,76.26321 2.761293,4.783 8.673559,6.0982 13.068673,2.75435 28.548345,-21.71988 52.510725,-48.95763 72.013875,-81.76553 2.82204,-4.74718 3.00458,-12.6906 0.7284,-17.72185 -7.11103,-15.71813 -21.09098,-50.13052 -25.68624,-89.06116 -0.64735,-5.48427 -5.43095,-9.95351 -10.9538,-9.95353 l -24.440675,-6e-5 c -5.522847,-2e-5 -10.713598,4.42321 -11.89098,9.81854 z"
           transform="rotate(-120,158.45415,-495.99122)" /></g></g></g></svg>
